<svg width="512" height="512" viewBox="0 0 512 512" fill="none" xmlns="http://www.w3.org/2000/svg">
  <rect width="512" height="512" fill="#FF6B00"/>
  <path d="M140.5 352.7c-3.8-4.8-5.7-10.6-5.7-17.4 0-7.2 2-13.2 6.1-18 4.1-4.8 9.6-7.2 16.5-7.2 4.8 0 9 1.2 12.6 3.6 3.6 2.4 6.4 5.7 8.4 9.9l-7.2 3.9c-1.4-3-3.4-5.4-6-7.2-2.6-1.8-5.6-2.7-9-2.7-4.8 0-8.7 1.7-11.7 5.1-3 3.4-4.5 7.7-4.5 12.9 0 5 1.5 9.2 4.5 12.6 3 3.4 6.9 5.1 11.7 5.1 3.4 0 6.4-0.9 9-2.7 2.6-1.8 4.6-4.2 6-7.2l7.2 3.9c-2 4.2-4.8 7.5-8.4 9.9-3.6 2.4-7.8 3.6-12.6 3.6-6.9 0-12.4-2.4-16.5-7.2-4.1-4.8-6.1-10.8-6.1-18z" fill="white"/>
  <path d="M257.8 310.1v45h-8.4v-45h-16.8v-7.8h42v7.8h-16.8z" fill="white"/>
  <path d="M284.2 355.1v-52.8h8.4v52.8h-8.4z" fill="white"/>
  <path d="M332.6 356.3c-6.9 0-12.4-2.4-16.5-7.2-4.1-4.8-6.1-10.8-6.1-18 0-7.2 2-13.2 6.1-18 4.1-4.8 9.6-7.2 16.5-7.2 4.8 0 9 1.2 12.6 3.6 3.6 2.4 6.4 5.7 8.4 9.9l-7.2 3.9c-1.4-3-3.4-5.4-6-7.2-2.6-1.8-5.6-2.7-9-2.7-4.8 0-8.7 1.7-11.7 5.1-3 3.4-4.5 7.7-4.5 12.9 0 5 1.5 9.2 4.5 12.6 3 3.4 6.9 5.1 11.7 5.1 3.4 0 6.4-0.9 9-2.7 2.6-1.8 4.6-4.2 6-7.2l7.2 3.9c-2 4.2-4.8 7.5-8.4 9.9-3.6 2.4-7.8 3.6-12.6 3.6z" fill="white"/>
</svg> 